<svg xmlns="http://www.w3.org/2000/svg" style="display:none">

  <symbol id="icon-search" viewBox="0 0 24 24" fill="currentColor">
    <path d="m16.914062.0546875c-3.906369 0-7.085937 3.179568-7.085937 7.0859375 0 3.90637 3.179568 7.085938 7.085937 7.085938C20.820432 14.226563 24 11.046995 24 7.140625c0-3.9063695-3.179568-7.0859375-7.085938-7.0859375zm0 1.15625c3.28161 0 5.929688 2.6480776 5.929688 5.9296875 0 3.28161-2.648077 5.929688-5.929688 5.929688-3.28161 0-5.929687-2.648078-5.929687-5.929688 0-3.2816099 2.648078-5.9296875 5.929687-5.9296875z"/>
    <path d="M10.148438 11.914891 0 20c.35693426 2.278412 1.8513596 3.547303 4 4l8.189453-10.069484c-1.08047-.797445-1.369304-1.079802-2.041015-2.015625z"/>
  </symbol>

  <symbol id="icon-envelope" viewBox="0 0 24 24" fill="currentColor">
    <path d="M3.8476561 3.183594a.53327501.53327501 0 0 0-.5332031.5332031.53327501.53327501 0 0 0 .5332031.5332031H20.195312a.53327501.53327501 0 0 0 .533203-0.5332031.53327501.53327501 0 0 0-.533203-0.5332031zM2.564453 5.8164065C1.1538107 5.8164065 0 6.9002756 0 8.2265628V18.40625c0 1.326288 1.1538109 2.410156 2.5644532 2.410156H21.435547C22.84619 20.816406 24 19.732538 24 18.40625V8.2265628C24 6.9002755 22.846189 5.8164065 21.435547 5.8164065zm0 1.0273437h18.871094c.278638 0 .534279.07521.753906.1972657l-9.128906 6.2480471c-.0161.0086-.188355.1007-.429688.203125-.252224.107047-.583981.189718-.632812.189453-.05885-.000315-.403598-.0903-.666016-.205078-.2568-.112321-.450439-.219875-.458984-.22461L1.8066404 7.042969c.2204309-.1233387.4776033-.1992188.7578126-.1992188zm20.287109 1.015625c.03313.1169233.05273.2391689.05273.3671876V18.40625c0 .12724-.01804.248944-.05078.365235l-7.160156-6.013672zM1.1464842 7.8632815 8.298828 12.759766 1.1464842 18.769532c-.032431-.115781-.0507812-.236668-.0507812-.363282V8.2265628c0-.1266145.01835-.2474985.050781-.3632813zm13.6445308 5.5136715 7.398438 6.216797c-.219457.121783-.475601.195313-.753906.195313H2.564453c-.2786363 0-.5342774-.07522-.7539063-.197266l7.3925781-6.212891 1.0800782.740235.02344.01172s.245826.138833.5625.277343c.316677.138508.676705.300351 1.121094.302735.43442.0023.783069-.151051 1.089844-.28125.306774-.130198.546875-.261719.546875-.261719l.02539-.01172z"/>
  </symbol>

  <symbol id="icon-menu" viewBox="0 0 24 24" fill="currentColor">
    <path d="M4.9068443 0h5.0999997c.3878 0 .7.3122.7.7V5.8c0 .3878-.3122.7-.7.7H4.9068443c-.3878 0-.7-.3122-.7-.7V.7c0-.3878.3122-.7.7-.7z"/>
    <path d="M4.9068443 8.75h5.0999997c.3878 0 .7.3122.7.7v5.1c0 .3878-.3122.7-.7.7H4.9068443c-.3878 0-.7-.3122-.7-.7v-5.1c0-.3878.3122-.7.7-.7z"/>
    <path d="M4.9068443 17.5h5.0999997c.3878 0 .7.3122.7.7v5.1c0 .3878-.3122.7-.7.7H4.9068443c-.3878 0-.7-.3122-.7-.7v-5.1c0-.3878.3122-.7.7-.7z"/>
    <path d="M19.093156 0h-5.1c-.3878 0-.7.3122-.7.7V5.8c0 .3878.3122.7.7.7h5.1c.3878 0 .7-.3122.7-.7V.7c0-.3878-.3122-.7-.7-.7z"/>
    <path d="M19.093156 8.8247099h-5.1c-.3878 0-.7.3122-.7.7V14.62471c0 .3878.3122.7.7.7h5.1c.3878 0 .7-.3122.7-.7V9.5247099c0-.3878.3122-.7.7-.7z"/>
    <path d="M19.093156 17.5h-5.1c-.3878 0-.7.3122-.7.7v5.1c0 .3878.3122.7.7.7h5.1c.3878 0 .7-.3122.7-.7v-5.1c0-.3878-.3122-.7-.7-.7z"/>
  </symbol>

  <symbol id="icon-menu-close" viewBox="0 0 24 24" fill="currentColor">
    <path d="M6.8989469-4.3545593c-.1154224.0694682-.2125034.1724814-.2738687.304325L4.2620344 1.0281469c-.163641.3515828-.0113422.7660122.3402406.9296531l8.467716 3.9406501-.000516 9.3397499c0 .3878.311459.600753.699259.600753l5.601244.000582c.3878 0 .699703-.313107.699703-.600907l-.000431-6.0823935 5.514169 2.5669935c.351582.163641.767062.012989.930703-.338593l2.363044-5.0783817c.163641-.3515828.011342-.7660122-.340241-.9296531L20.069209 1.4359501l.000516-9.33975c0-.3877999-.311459-.6007531-.699259-.6007531l-5.601244-.0005813c-.3878 0-.699703.3131063-.699703.6009063l.000431 6.0823937-5.5141687-2.5669938c-.2197397-.1022756-.4644641-.0815115-.6568348.0342688z" transform="rotate(32.520409)"/>
  </symbol>

  <symbol id="icon-share" viewBox="0 0 24 24" fill="currentColor">
  <path d="m20.175781 1.2070312c-1.375805 0-2.5 1.1237992-2.5 2.5 0 .451863.122478.8755916.333985 1.2421876l-5.898438 5.25c-.597033-.4743025-1.349756-.7597659-2.167969-.7597659-.1591485 0-.3150759.014362-.46875.035156l-1.0859375-3.861328c.6166043-.4021866 1.0273432-1.0969379 1.0273437-1.8847656 0-1.2385808-1.0117754-2.25-2.25-2.25-1.2382242 0-2.25 1.0114192-2.25 2.25 0 1.23858 1.0117758 2.25 2.25 2.25.09556 0 .1887489-.00784.28125-.019531l1.0644532 3.7910159c-1.2166677.549638-2.0703124 1.772848-2.0703126 3.189453 0 .817557.285917 1.570876.7597657 2.167969l-3.9375 4.767578c-.172737-.06974-.3595725-.111328-.5566407-.111328-.8254828 0-1.4999997.674279-1.5 1.5 0 .82572.6745169 1.5 1.5 1.5.8254834 0 1.4999995-.67428 1.5-1.5 0-.263152-.075244-.507191-.1953124-.722656l3.9179687-4.744141c.5706973.403398 1.2653679.642578 2.0136719.642578.9288836 0 1.7728386-.367907 2.4003906-.962891l4.427734 3.207032c-.120435.292122-.1875.610872-.1875.945312 0 1.3762 1.126149 2.5 2.501954 2.5 1.375804 0 2.498045-1.1238 2.498046-2.5 0-1.376201-1.122241-2.5-2.498046-2.5-.682971 0-1.305109.277336-1.757813.72461l-4.363281-3.160157c.301014-.51652.476562-1.115337.476562-1.753906 0-.748938-.241013-1.443178-.644531-2.013672l5.875-5.2265622c.419304.3176429.939945.5078125 1.503906.5078124 1.375805 0 2.499999-1.1238 2.5-2.5 0-1.3762008-1.124195-2.5-2.5-2.5z"/>
  </symbol>
</svg>
